<?xml version="1.0" encoding="UTF-8" standalone="no" ?>
<!DOCTYPE svg PUBLIC "-//W3C//DTD SVG 1.1//EN" "http://www.w3.org/Graphics/SVG/1.1/DTD/svg11.dtd">
<svg xmlns="http://www.w3.org/2000/svg" xmlns:xlink="http://www.w3.org/1999/xlink" version="1.1" width="120" height="119.99999999999999" viewBox="0 0 120 120" xml:space="preserve">
<desc>Created with Fabric.js 2.0.1</desc>
<defs>
</defs>
<g transform="translate(60 60) scale(0.35 0.35)" style="">
	<path id="Capa_1" d="M 334.485 37.463 c -6.753 -1.449 -13.396 2.853 -14.842 9.603 l -9.084 42.391 C 281.637 40.117 228.551 9.155 170.368 9.155 c -89.603 0 -162.5 72.896 -162.5 162.5 c 0 6.903 5.596 12.5 12.5 12.5 c 6.903 0 12.5 -5.597 12.5 -12.5 c 0 -75.818 61.682 -137.5 137.5 -137.5 c 49.429 0 94.515 26.403 118.925 68.443 l -41.674 -8.931 c -6.752 -1.447 -13.396 2.854 -14.841 9.604 c -1.446 6.75 2.854 13.396 9.604 14.842 l 71.536 15.33 c 1.215 0.261 2.449 0.336 3.666 0.234 c 2.027 -0.171 4.003 -0.836 5.743 -1.962 c 2.784 -1.801 4.738 -4.634 5.433 -7.875 l 15.331 -71.536 C 345.535 45.555 341.235 38.911 334.485 37.463 z" style="stroke: none; stroke-width: 1; stroke-dasharray: none; stroke-linecap: butt; stroke-linejoin: miter; stroke-miterlimit: 10; fill: rgb(255,255,255); fill-rule: nonzero; opacity: 1;" transform="translate(3.93 -75.53) translate(-176.11909079614446, -96.655) " stroke-linecap="round" />
	<path id="Capa_1" d="M 321.907 155.271 c -6.899 0.228 -12.309 6.006 -12.081 12.905 c 1.212 36.708 -11.942 71.689 -37.042 98.504 c -25.099 26.812 -59.137 42.248 -95.844 43.46 c -1.53 0.05 -3.052 0.075 -4.576 0.075 c -47.896 -0.002 -92.018 -24.877 -116.936 -65.18 l 43.447 11.65 c 6.668 1.787 13.523 -2.168 15.311 -8.837 c 1.788 -6.668 -2.168 -13.522 -8.836 -15.312 l -70.664 -18.946 c -3.202 -0.857 -6.615 -0.409 -9.485 1.247 c -2.872 1.656 -4.967 4.387 -5.826 7.589 L 0.43 293.092 c -1.788 6.668 2.168 13.522 8.836 15.311 c 1.085 0.291 2.173 0.431 3.245 0.431 c 5.518 0 10.569 -3.684 12.066 -9.267 l 10.649 -39.717 c 29.624 46.647 81.189 75.367 137.132 75.365 c 1.797 0 3.604 -0.029 5.408 -0.089 c 43.381 -1.434 83.608 -19.674 113.271 -51.362 s 45.209 -73.031 43.776 -116.413 C 334.586 160.453 328.805 155.026 321.907 155.271 z" style="stroke: none; stroke-width: 1; stroke-dasharray: none; stroke-linecap: butt; stroke-linejoin: miter; stroke-miterlimit: 10; fill: rgb(255,255,255); fill-rule: nonzero; opacity: 1;" transform="translate(-4.73 73.05) translate(-167.45214764604896, -245.23901012631973) " stroke-linecap="round" />
</g>
</svg>