<?xml version="1.0" encoding="UTF-8" standalone="no" ?>
<!DOCTYPE svg PUBLIC "-//W3C//DTD SVG 1.1//EN" "http://www.w3.org/Graphics/SVG/1.1/DTD/svg11.dtd">
<svg xmlns="http://www.w3.org/2000/svg" xmlns:xlink="http://www.w3.org/1999/xlink" version="1.1" width="120" height="120" viewBox="0 0 120 120" xml:space="preserve">
<desc>Created with Fabric.js 2.0.1</desc>
<defs>
</defs>
<g transform="translate(60 60) scale(0.36 0.36)" style="">
	<path id="Capa_1" d="M 165 0 C 74.019 0 0 74.02 0 165.001 C 0 255.982 74.019 330 165 330 s 165 -74.018 165 -164.999 C 330 74.02 255.981 0 165 0 z M 165 300 c -74.44 0 -135 -60.56 -135 -134.999 C 30 90.562 90.56 30 165 30 s 135 60.562 135 135.001 C 300 239.44 239.439 300 165 300 z" style="stroke: none; stroke-width: 1; stroke-dasharray: none; stroke-linecap: butt; stroke-linejoin: miter; stroke-miterlimit: 10; fill: rgb(255,255,255); fill-rule: nonzero; opacity: 1;" transform="translate(0 0) translate(-165, -165) " stroke-linecap="round" />
	<path id="Capa_1" d="M 164.998 70 c -11.026 0 -19.996 8.976 -19.996 20.009 c 0 11.023 8.97 19.991 19.996 19.991 c 11.026 0 19.996 -8.968 19.996 -19.991 C 184.994 78.976 176.024 70 164.998 70 z" style="stroke: none; stroke-width: 1; stroke-dasharray: none; stroke-linecap: butt; stroke-linejoin: miter; stroke-miterlimit: 10; fill: rgb(255,255,255); fill-rule: nonzero; opacity: 1;" transform="translate(0 -75) translate(-164.998, -90) " stroke-linecap="round" />
	<path id="Capa_1" d="M 165 140 c -8.284 0 -15 6.716 -15 15 v 90 c 0 8.284 6.716 15 15 15 c 8.284 0 15 -6.716 15 -15 v -90 C 180 146.716 173.284 140 165 140 z" style="stroke: none; stroke-width: 1; stroke-dasharray: none; stroke-linecap: butt; stroke-linejoin: miter; stroke-miterlimit: 10; fill: rgb(255,255,255); fill-rule: nonzero; opacity: 1;" transform="translate(0 35) translate(-165, -200) " stroke-linecap="round" />
</g>
</svg>